<mxfile host="app.diagrams.net" modified="2022-12-05T17:47:12.081Z" agent="5.0 (Macintosh)" etag="cTvp9gzsvigZZE_cNLCq" version="20.5.3" type="github">
  <diagram id="kgpKYQtTHZ0yAKxKKP6v" name="Page-1">
    <mxGraphModel dx="988" dy="1681" grid="1" gridSize="10" guides="1" tooltips="1" connect="1" arrows="1" fold="1" page="1" pageScale="1" pageWidth="850" pageHeight="1100" math="0" shadow="0">
      <root>
        <mxCell id="0" />
        <mxCell id="1" parent="0" />
        <mxCell id="ZnEC9HoCun2v_Y0EpvD7-39" style="edgeStyle=orthogonalEdgeStyle;rounded=0;orthogonalLoop=1;jettySize=auto;html=1;entryX=0;entryY=0.5;entryDx=0;entryDy=0;exitX=0.875;exitY=0.5;exitDx=0;exitDy=0;exitPerimeter=0;strokeWidth=2;endArrow=block;endFill=1;" edge="1" parent="1" source="ZnEC9HoCun2v_Y0EpvD7-30" target="ZnEC9HoCun2v_Y0EpvD7-31">
          <mxGeometry relative="1" as="geometry" />
        </mxCell>
        <mxCell id="ZnEC9HoCun2v_Y0EpvD7-30" value="ATG" style="ellipse;shape=cloud;whiteSpace=wrap;html=1;fillColor=#e51400;fontColor=#ffffff;strokeColor=#B20000;strokeWidth=2;" vertex="1" parent="1">
          <mxGeometry x="260" y="60" width="120" height="80" as="geometry" />
        </mxCell>
        <mxCell id="ZnEC9HoCun2v_Y0EpvD7-40" style="edgeStyle=orthogonalEdgeStyle;rounded=0;orthogonalLoop=1;jettySize=auto;html=1;entryX=0;entryY=0.5;entryDx=0;entryDy=0;strokeWidth=2;endArrow=block;endFill=1;" edge="1" parent="1" source="ZnEC9HoCun2v_Y0EpvD7-31" target="ZnEC9HoCun2v_Y0EpvD7-32">
          <mxGeometry relative="1" as="geometry" />
        </mxCell>
        <mxCell id="ZnEC9HoCun2v_Y0EpvD7-31" value="Export Process" style="shape=process;whiteSpace=wrap;html=1;backgroundOutline=1;strokeWidth=2;" vertex="1" parent="1">
          <mxGeometry x="416" y="73" width="108" height="54" as="geometry" />
        </mxCell>
        <mxCell id="ZnEC9HoCun2v_Y0EpvD7-112" style="edgeStyle=orthogonalEdgeStyle;rounded=0;orthogonalLoop=1;jettySize=auto;html=1;entryX=0;entryY=0.5;entryDx=0;entryDy=0;strokeWidth=2;endArrow=block;endFill=1;" edge="1" parent="1" source="ZnEC9HoCun2v_Y0EpvD7-32" target="ZnEC9HoCun2v_Y0EpvD7-108">
          <mxGeometry relative="1" as="geometry" />
        </mxCell>
        <mxCell id="ZnEC9HoCun2v_Y0EpvD7-34" value="SFCC" style="ellipse;shape=cloud;whiteSpace=wrap;html=1;fillColor=#1ba1e2;fontColor=#ffffff;strokeColor=#006EAF;strokeWidth=2;" vertex="1" parent="1">
          <mxGeometry x="1330" y="57" width="120" height="80" as="geometry" />
        </mxCell>
        <mxCell id="ZnEC9HoCun2v_Y0EpvD7-43" style="edgeStyle=orthogonalEdgeStyle;rounded=0;orthogonalLoop=1;jettySize=auto;html=1;entryX=0;entryY=0.5;entryDx=0;entryDy=0;strokeWidth=2;endArrow=block;endFill=1;" edge="1" parent="1" source="ZnEC9HoCun2v_Y0EpvD7-35" target="ZnEC9HoCun2v_Y0EpvD7-36">
          <mxGeometry relative="1" as="geometry" />
        </mxCell>
        <mxCell id="ZnEC9HoCun2v_Y0EpvD7-65" value="Reads imported csv" style="edgeLabel;html=1;align=center;verticalAlign=middle;resizable=0;points=[];" vertex="1" connectable="0" parent="ZnEC9HoCun2v_Y0EpvD7-43">
          <mxGeometry x="-0.2276" relative="1" as="geometry">
            <mxPoint x="11" as="offset" />
          </mxGeometry>
        </mxCell>
        <mxCell id="ZnEC9HoCun2v_Y0EpvD7-35" value="WebDAV" style="strokeWidth=2;html=1;shape=mxgraph.flowchart.database;whiteSpace=wrap;" vertex="1" parent="1">
          <mxGeometry x="892" y="70" width="60" height="60" as="geometry" />
        </mxCell>
        <mxCell id="ZnEC9HoCun2v_Y0EpvD7-44" value="Creates customers" style="edgeStyle=orthogonalEdgeStyle;rounded=0;orthogonalLoop=1;jettySize=auto;html=1;entryX=0.16;entryY=0.55;entryDx=0;entryDy=0;entryPerimeter=0;strokeWidth=2;endArrow=block;endFill=1;" edge="1" parent="1" source="ZnEC9HoCun2v_Y0EpvD7-36" target="ZnEC9HoCun2v_Y0EpvD7-34">
          <mxGeometry relative="1" as="geometry" />
        </mxCell>
        <mxCell id="ZnEC9HoCun2v_Y0EpvD7-64" value="Logs import details" style="edgeStyle=orthogonalEdgeStyle;rounded=0;orthogonalLoop=1;jettySize=auto;html=1;entryX=0.5;entryY=0;entryDx=0;entryDy=0;entryPerimeter=0;strokeWidth=2;exitX=0.5;exitY=0;exitDx=0;exitDy=0;endArrow=block;endFill=1;" edge="1" parent="1" source="ZnEC9HoCun2v_Y0EpvD7-36" target="ZnEC9HoCun2v_Y0EpvD7-35">
          <mxGeometry relative="1" as="geometry">
            <Array as="points">
              <mxPoint x="1151" y="37" />
              <mxPoint x="922" y="37" />
            </Array>
          </mxGeometry>
        </mxCell>
        <mxCell id="ZnEC9HoCun2v_Y0EpvD7-36" value="Custom Job" style="shape=process;whiteSpace=wrap;html=1;backgroundOutline=1;strokeWidth=2;" vertex="1" parent="1">
          <mxGeometry x="1097" y="74" width="108" height="54" as="geometry" />
        </mxCell>
        <mxCell id="ZnEC9HoCun2v_Y0EpvD7-46" style="edgeStyle=orthogonalEdgeStyle;rounded=0;orthogonalLoop=1;jettySize=auto;html=1;entryX=0;entryY=0.5;entryDx=0;entryDy=0;exitX=0.875;exitY=0.5;exitDx=0;exitDy=0;exitPerimeter=0;strokeWidth=2;endArrow=block;endFill=1;" edge="1" parent="1" source="ZnEC9HoCun2v_Y0EpvD7-47" target="ZnEC9HoCun2v_Y0EpvD7-49">
          <mxGeometry relative="1" as="geometry" />
        </mxCell>
        <mxCell id="ZnEC9HoCun2v_Y0EpvD7-47" value="ATG" style="ellipse;shape=cloud;whiteSpace=wrap;html=1;fillColor=#e51400;fontColor=#ffffff;strokeColor=#B20000;strokeWidth=2;" vertex="1" parent="1">
          <mxGeometry x="260" y="354" width="120" height="80" as="geometry" />
        </mxCell>
        <mxCell id="ZnEC9HoCun2v_Y0EpvD7-48" style="edgeStyle=orthogonalEdgeStyle;rounded=0;orthogonalLoop=1;jettySize=auto;html=1;entryX=0;entryY=0.5;entryDx=0;entryDy=0;strokeWidth=2;endArrow=block;endFill=1;" edge="1" parent="1" source="ZnEC9HoCun2v_Y0EpvD7-49" target="ZnEC9HoCun2v_Y0EpvD7-51">
          <mxGeometry relative="1" as="geometry" />
        </mxCell>
        <mxCell id="ZnEC9HoCun2v_Y0EpvD7-49" value="Export Process" style="shape=process;whiteSpace=wrap;html=1;backgroundOutline=1;strokeWidth=2;" vertex="1" parent="1">
          <mxGeometry x="416" y="367" width="108" height="54" as="geometry" />
        </mxCell>
        <mxCell id="ZnEC9HoCun2v_Y0EpvD7-50" style="edgeStyle=orthogonalEdgeStyle;rounded=0;orthogonalLoop=1;jettySize=auto;html=1;entryX=0;entryY=0.5;entryDx=0;entryDy=0;strokeWidth=2;endArrow=block;endFill=1;" edge="1" parent="1" source="ZnEC9HoCun2v_Y0EpvD7-51" target="ZnEC9HoCun2v_Y0EpvD7-109">
          <mxGeometry relative="1" as="geometry">
            <mxPoint x="727" y="395" as="targetPoint" />
          </mxGeometry>
        </mxCell>
        <mxCell id="ZnEC9HoCun2v_Y0EpvD7-61" value="Reads created data" style="edgeStyle=orthogonalEdgeStyle;rounded=0;orthogonalLoop=1;jettySize=auto;html=1;entryX=1;entryY=0.5;entryDx=0;entryDy=0;strokeWidth=2;exitX=0.497;exitY=0.14;exitDx=0;exitDy=0;exitPerimeter=0;fillColor=#008a00;strokeColor=#005700;endArrow=block;endFill=1;" edge="1" parent="1" source="ZnEC9HoCun2v_Y0EpvD7-54" target="ZnEC9HoCun2v_Y0EpvD7-60">
          <mxGeometry x="0.2305" relative="1" as="geometry">
            <Array as="points">
              <mxPoint x="1400" y="297" />
            </Array>
            <mxPoint as="offset" />
          </mxGeometry>
        </mxCell>
        <mxCell id="ZnEC9HoCun2v_Y0EpvD7-54" value="SFCC" style="ellipse;shape=cloud;whiteSpace=wrap;html=1;fillColor=#1ba1e2;fontColor=#ffffff;strokeColor=#006EAF;strokeWidth=2;" vertex="1" parent="1">
          <mxGeometry x="1340" y="350" width="120" height="80" as="geometry" />
        </mxCell>
        <mxCell id="ZnEC9HoCun2v_Y0EpvD7-55" value="Reads imported csv" style="edgeStyle=orthogonalEdgeStyle;rounded=0;orthogonalLoop=1;jettySize=auto;html=1;entryX=0;entryY=0.5;entryDx=0;entryDy=0;strokeWidth=2;endArrow=block;endFill=1;" edge="1" parent="1" source="ZnEC9HoCun2v_Y0EpvD7-56" target="ZnEC9HoCun2v_Y0EpvD7-58">
          <mxGeometry x="-0.0492" relative="1" as="geometry">
            <mxPoint as="offset" />
          </mxGeometry>
        </mxCell>
        <mxCell id="ZnEC9HoCun2v_Y0EpvD7-63" style="edgeStyle=orthogonalEdgeStyle;rounded=0;orthogonalLoop=1;jettySize=auto;html=1;entryX=0;entryY=0.5;entryDx=0;entryDy=0;strokeWidth=2;" edge="1" parent="1" source="ZnEC9HoCun2v_Y0EpvD7-56" target="ZnEC9HoCun2v_Y0EpvD7-60">
          <mxGeometry relative="1" as="geometry">
            <Array as="points">
              <mxPoint x="922" y="297" />
            </Array>
          </mxGeometry>
        </mxCell>
        <mxCell id="ZnEC9HoCun2v_Y0EpvD7-56" value="WebDAV" style="strokeWidth=2;html=1;shape=mxgraph.flowchart.database;whiteSpace=wrap;" vertex="1" parent="1">
          <mxGeometry x="892" y="364" width="60" height="60" as="geometry" />
        </mxCell>
        <mxCell id="ZnEC9HoCun2v_Y0EpvD7-57" value="Creates customers" style="edgeStyle=orthogonalEdgeStyle;rounded=0;orthogonalLoop=1;jettySize=auto;html=1;entryX=0.16;entryY=0.55;entryDx=0;entryDy=0;entryPerimeter=0;strokeWidth=2;endArrow=block;endFill=1;" edge="1" parent="1" source="ZnEC9HoCun2v_Y0EpvD7-58" target="ZnEC9HoCun2v_Y0EpvD7-54">
          <mxGeometry relative="1" as="geometry" />
        </mxCell>
        <mxCell id="ZnEC9HoCun2v_Y0EpvD7-59" value="Improved log with import details" style="edgeStyle=orthogonalEdgeStyle;rounded=0;orthogonalLoop=1;jettySize=auto;html=1;entryX=0.5;entryY=1;entryDx=0;entryDy=0;entryPerimeter=0;strokeWidth=2;exitX=0.5;exitY=1;exitDx=0;exitDy=0;fillColor=#e3c800;strokeColor=#B09500;endArrow=block;endFill=1;" edge="1" parent="1" source="ZnEC9HoCun2v_Y0EpvD7-58" target="ZnEC9HoCun2v_Y0EpvD7-56">
          <mxGeometry relative="1" as="geometry">
            <Array as="points">
              <mxPoint x="1150" y="510" />
              <mxPoint x="922" y="510" />
            </Array>
          </mxGeometry>
        </mxCell>
        <mxCell id="ZnEC9HoCun2v_Y0EpvD7-58" value="Custom Job" style="shape=process;whiteSpace=wrap;html=1;backgroundOutline=1;strokeWidth=2;fillColor=#e3c800;fontColor=#000000;strokeColor=#B09500;" vertex="1" parent="1">
          <mxGeometry x="1097" y="367" width="108" height="54" as="geometry" />
        </mxCell>
        <mxCell id="ZnEC9HoCun2v_Y0EpvD7-62" value="Compares imported csv&lt;br&gt;with customer data" style="edgeStyle=orthogonalEdgeStyle;rounded=0;orthogonalLoop=1;jettySize=auto;html=1;entryX=0.5;entryY=0;entryDx=0;entryDy=0;entryPerimeter=0;strokeWidth=2;fillColor=#008a00;strokeColor=#005700;endArrow=block;endFill=1;" edge="1" parent="1" source="ZnEC9HoCun2v_Y0EpvD7-60" target="ZnEC9HoCun2v_Y0EpvD7-56">
          <mxGeometry x="-0.1153" relative="1" as="geometry">
            <mxPoint as="offset" />
          </mxGeometry>
        </mxCell>
        <mxCell id="ZnEC9HoCun2v_Y0EpvD7-60" value="Custom Job" style="shape=process;whiteSpace=wrap;html=1;backgroundOutline=1;strokeWidth=2;fillColor=#008a00;fontColor=#ffffff;strokeColor=#005700;" vertex="1" parent="1">
          <mxGeometry x="1097" y="270" width="108" height="54" as="geometry" />
        </mxCell>
        <mxCell id="ZnEC9HoCun2v_Y0EpvD7-85" value="" style="shape=partialRectangle;connectable=0;fillColor=none;top=0;left=0;bottom=0;right=0;align=left;spacingLeft=6;fontStyle=5;overflow=hidden;strokeWidth=2;" vertex="1" parent="1">
          <mxGeometry x="430" y="1100" width="153" height="300" as="geometry">
            <mxRectangle width="153" height="300" as="alternateBounds" />
          </mxGeometry>
        </mxCell>
        <mxCell id="ZnEC9HoCun2v_Y0EpvD7-99" value="PROCESSO ATUALIZADO" style="swimlane;horizontal=0;whiteSpace=wrap;html=1;strokeWidth=2;collapsible=0;" vertex="1" parent="1">
          <mxGeometry x="216" y="240" width="1294" height="320" as="geometry" />
        </mxCell>
        <mxCell id="ZnEC9HoCun2v_Y0EpvD7-109" value="SFCC&lt;br&gt;Import" style="verticalLabelPosition=middle;verticalAlign=middle;html=1;shape=trapezoid;perimeter=trapezoidPerimeter;whiteSpace=wrap;size=0.23;arcSize=10;flipV=1;labelPosition=center;align=center;strokeWidth=2;" vertex="1" parent="ZnEC9HoCun2v_Y0EpvD7-99">
          <mxGeometry x="513" y="124" width="100" height="60" as="geometry" />
        </mxCell>
        <mxCell id="ZnEC9HoCun2v_Y0EpvD7-100" value="PROCESSO ATUAL" style="swimlane;horizontal=0;whiteSpace=wrap;html=1;strokeWidth=2;collapsible=0;" vertex="1" parent="1">
          <mxGeometry x="218" y="-20" width="1294" height="260" as="geometry" />
        </mxCell>
        <mxCell id="ZnEC9HoCun2v_Y0EpvD7-108" value="SFCC&lt;br&gt;Import" style="verticalLabelPosition=middle;verticalAlign=middle;html=1;shape=trapezoid;perimeter=trapezoidPerimeter;whiteSpace=wrap;size=0.23;arcSize=10;flipV=1;labelPosition=center;align=center;strokeWidth=2;" vertex="1" parent="ZnEC9HoCun2v_Y0EpvD7-100">
          <mxGeometry x="509" y="90" width="100" height="60" as="geometry" />
        </mxCell>
        <mxCell id="ZnEC9HoCun2v_Y0EpvD7-111" style="edgeStyle=orthogonalEdgeStyle;rounded=0;orthogonalLoop=1;jettySize=auto;html=1;entryX=0;entryY=0.5;entryDx=0;entryDy=0;entryPerimeter=0;strokeWidth=2;endArrow=block;endFill=1;" edge="1" parent="1" source="ZnEC9HoCun2v_Y0EpvD7-109" target="ZnEC9HoCun2v_Y0EpvD7-56">
          <mxGeometry relative="1" as="geometry" />
        </mxCell>
        <mxCell id="ZnEC9HoCun2v_Y0EpvD7-113" style="edgeStyle=orthogonalEdgeStyle;rounded=0;orthogonalLoop=1;jettySize=auto;html=1;entryX=0;entryY=0.5;entryDx=0;entryDy=0;entryPerimeter=0;strokeWidth=2;endArrow=block;endFill=1;" edge="1" parent="1" source="ZnEC9HoCun2v_Y0EpvD7-108" target="ZnEC9HoCun2v_Y0EpvD7-35">
          <mxGeometry relative="1" as="geometry" />
        </mxCell>
        <mxCell id="ZnEC9HoCun2v_Y0EpvD7-116" value="" style="group" vertex="1" connectable="0" parent="1">
          <mxGeometry x="577" y="357" width="100" height="69" as="geometry" />
        </mxCell>
        <mxCell id="ZnEC9HoCun2v_Y0EpvD7-115" value="CN/CF Data" style="shape=document;whiteSpace=wrap;html=1;boundedLbl=1;strokeWidth=2;" vertex="1" parent="ZnEC9HoCun2v_Y0EpvD7-116">
          <mxGeometry width="96" height="64" as="geometry" />
        </mxCell>
        <mxCell id="ZnEC9HoCun2v_Y0EpvD7-51" value="CN/CF Data" style="shape=document;whiteSpace=wrap;html=1;boundedLbl=1;strokeWidth=2;" vertex="1" parent="ZnEC9HoCun2v_Y0EpvD7-116">
          <mxGeometry x="4" y="5" width="96" height="64" as="geometry" />
        </mxCell>
        <mxCell id="ZnEC9HoCun2v_Y0EpvD7-117" value="" style="group" vertex="1" connectable="0" parent="1">
          <mxGeometry x="574" y="63" width="100" height="69" as="geometry" />
        </mxCell>
        <mxCell id="ZnEC9HoCun2v_Y0EpvD7-114" value="CN/CF Data" style="shape=document;whiteSpace=wrap;html=1;boundedLbl=1;strokeWidth=2;" vertex="1" parent="ZnEC9HoCun2v_Y0EpvD7-117">
          <mxGeometry width="96" height="64" as="geometry" />
        </mxCell>
        <mxCell id="ZnEC9HoCun2v_Y0EpvD7-32" value="CN/CF Data" style="shape=document;whiteSpace=wrap;html=1;boundedLbl=1;strokeWidth=2;" vertex="1" parent="ZnEC9HoCun2v_Y0EpvD7-117">
          <mxGeometry x="4" y="5" width="96" height="64" as="geometry" />
        </mxCell>
      </root>
    </mxGraphModel>
  </diagram>
</mxfile>
